<svg width="14" height="14" viewBox="0 0 14 14" fill="none" xmlns="http://www.w3.org/2000/svg">
<path d="M11.9499 2.05036C13.095 3.19554 13.8076 4.70235 13.9663 6.31404C14.125 7.92574 13.72 9.5426 12.8202 10.8891C11.9204 12.2357 10.5816 13.2286 9.03182 13.6986C7.48205 14.1687 5.81724 14.0869 4.32105 13.4671C2.82485 12.8473 1.58985 11.7279 0.826468 10.2996C0.0630871 8.87132 -0.181439 7.22253 0.134554 5.63416C0.450547 4.0458 1.30751 2.61615 2.55942 1.58879C3.81133 0.561436 5.38074 -5.14061e-05 7.00022 3.52997e-09C7.169 3.52998e-09 7.33086 0.0670452 7.4502 0.186387C7.56954 0.305728 7.63659 0.467589 7.63659 0.636364V5.90354C7.87922 6.04363 8.06885 6.25986 8.17607 6.51871C8.28328 6.77755 8.30209 7.06454 8.22958 7.33516C8.15707 7.60579 7.99728 7.84492 7.77501 8.01548C7.55273 8.18604 7.28039 8.27848 7.00022 8.27848C6.72005 8.27848 6.44771 8.18604 6.22544 8.01548C6.00316 7.84492 5.84338 7.60579 5.77086 7.33516C5.69835 7.06454 5.71716 6.77755 5.82438 6.51871C5.93159 6.25986 6.12123 6.04363 6.36386 5.90354V4.21336C5.74667 4.3555 5.1942 4.69866 4.79326 5.18894C4.39232 5.67921 4.16564 6.2888 4.14883 6.92192C4.13202 7.55504 4.32604 8.1758 4.7004 8.68665C5.07476 9.19751 5.60824 9.56951 6.21702 9.74419C6.82579 9.91888 7.47535 9.88635 8.06363 9.65171C8.6519 9.41708 9.14555 8.99364 9.46699 8.44794C9.78844 7.90223 9.91947 7.26519 9.83948 6.63692C9.7595 6.00865 9.47305 5.42476 9.02513 4.977C8.90521 4.85734 8.83775 4.69494 8.83757 4.52554C8.83739 4.35613 8.90451 4.1936 9.02417 4.07368C9.14383 3.95377 9.30623 3.8863 9.47563 3.88612C9.64504 3.88594 9.80758 3.95307 9.92749 4.07273C10.587 4.72903 11.0062 5.58838 11.1174 6.51213C11.2286 7.43588 11.0254 8.37016 10.5405 9.16425C10.0556 9.95833 9.31731 10.5659 8.44477 10.8889C7.57224 11.212 6.61631 11.2317 5.73122 10.9448C4.84612 10.6579 4.08348 10.0813 3.56633 9.30781C3.04917 8.53435 2.80767 7.60923 2.88077 6.68168C2.95387 5.75414 3.33732 4.87827 3.96926 4.19537C4.60119 3.51248 5.44476 3.0624 6.36386 2.91773V1.30773C5.07421 1.45183 3.87173 2.02962 2.95339 2.94646C2.03504 3.8633 1.45528 5.06483 1.30906 6.35424C1.16284 7.64365 1.45884 8.94449 2.14857 10.0437C2.83829 11.1429 3.88086 11.9753 5.10549 12.4045C6.33012 12.8337 7.66422 12.8343 8.88924 12.4062C10.1143 11.9781 11.1576 11.1467 11.8483 10.0481C12.5391 8.94958 12.8363 7.64901 12.6912 6.35947C12.5462 5.06993 11.9675 3.86786 11.05 2.95018C10.9893 2.89148 10.9408 2.82126 10.9074 2.74362C10.8741 2.66598 10.8565 2.58248 10.8558 2.49798C10.8551 2.41349 10.8712 2.32969 10.9031 2.25148C10.9351 2.17328 10.9824 2.10223 11.0421 2.04248C11.1019 1.98273 11.1729 1.93547 11.2512 1.90348C11.3294 1.87148 11.4132 1.85538 11.4977 1.85611C11.5821 1.85685 11.6657 1.8744 11.7433 1.90775C11.8209 1.9411 11.8911 1.98958 11.9499 2.05036Z" fill="#7B7979"/>
</svg>
