<svg width="12" height="14" viewBox="0 0 12 14" fill="none" xmlns="http://www.w3.org/2000/svg">
<path fill-rule="evenodd" clip-rule="evenodd" d="M7.27271 2.33333C7.27271 1.04467 8.33097 0 9.63635 0C10.9417 0 12 1.04467 12 2.33333C12 3.622 10.9417 4.66667 9.63635 4.66667C8.9772 4.66667 8.38151 4.40017 7.95325 3.97143L4.6812 6.18065C4.71141 6.32975 4.72729 6.48375 4.72729 6.64104C4.72729 6.95254 4.66518 7.25032 4.55265 7.52248L8.14045 9.86006C8.54767 9.53127 9.06868 9.33331 9.63635 9.33331C10.9417 9.33331 12 10.378 12 11.6667C12 12.9553 10.9417 14 9.63635 14C8.33097 14 7.27271 12.9553 7.27271 11.6667C7.27271 11.3292 7.34555 11.0078 7.47649 10.7178L3.9177 8.39909C3.50256 8.75686 2.95878 8.97435 2.36363 8.97435C1.05824 8.97435 0 7.92967 0 6.64104C0 5.35236 1.05824 4.30769 2.36363 4.30769C3.11428 4.30769 3.78249 4.65308 4.21514 5.19063L7.38628 3.04949C7.31252 2.82351 7.27271 2.58272 7.27271 2.33333Z" fill="#FDAA14"/>
</svg>
